<svg width="15" height="17" viewBox="0 0 15 17" fill="none" xmlns="http://www.w3.org/2000/svg">
<g clip-path="url(#clip0_143_3696)">
<path d="M11.9351 16.3201C11.0095 17.2174 9.99898 17.0757 9.0262 16.6507C7.99674 16.2162 7.05229 16.1973 5.96617 16.6507C4.60616 17.2362 3.88838 17.0662 3.07615 16.3201C-1.53277 11.5695 -0.852766 4.33503 4.3795 4.07059C5.6545 4.1367 6.54229 4.76948 7.28841 4.82615C8.40286 4.59948 9.47009 3.94781 10.6601 4.03281C12.0862 4.14614 13.1629 4.71281 13.8712 5.73282C10.9245 7.49894 11.6234 11.3806 14.3246 12.4668C13.7862 13.8834 13.0873 15.2907 11.9257 16.3296L11.9351 16.3201ZM7.19396 4.01392C7.05229 1.90779 8.76175 0.170001 10.7262 0C11.0001 2.43668 8.51619 4.25003 7.19396 4.01392Z" fill="#252422"/>
</g>
<defs>
<clipPath id="clip0_143_3696">
<rect width="14.3246" height="17.0023" fill="white"/>
</clipPath>
</defs>
</svg>
