<svg width="16" height="17" viewBox="0 0 16 17" fill="none" xmlns="http://www.w3.org/2000/svg">
<g clip-path="url(#clip0_143_3695)">
<path d="M16 8.50113C16 4.08288 12.4183 0.501129 8 0.501129C3.58175 0.501129 0 4.08288 0 8.50113C0 12.4941 2.9255 15.8038 6.75 16.4039V10.8136H4.71875V8.50113H6.75V6.73863C6.75 4.73363 7.94438 3.62613 9.77175 3.62613C10.647 3.62613 11.5625 3.78238 11.5625 3.78238V5.75113H10.5538C9.55994 5.75113 9.25 6.36782 9.25 7.0005V8.50113H11.4688L11.1141 10.8136H9.25V16.4039C13.0745 15.8038 16 12.4942 16 8.50113Z" fill="#1877F2"/>
<path d="M11.1141 10.8136L11.4688 8.50113H9.25V7.0005C9.25 6.36775 9.55994 5.75113 10.5538 5.75113H11.5625V3.78238C11.5625 3.78238 10.647 3.62613 9.77169 3.62613C7.94438 3.62613 6.75 4.73363 6.75 6.73863V8.50113H4.71875V10.8136H6.75V16.4039C7.16351 16.4687 7.58144 16.5012 8 16.5011C8.41856 16.5012 8.83649 16.4687 9.25 16.4039V10.8136H11.1141Z" fill="white"/>
</g>
<defs>
<clipPath id="clip0_143_3695">
<rect width="16" height="16" fill="white" transform="translate(0 0.501129)"/>
</clipPath>
</defs>
</svg>
