<svg width="17" height="17" viewBox="0 0 17 17" fill="none" xmlns="http://www.w3.org/2000/svg">
<g clip-path="url(#clip0_143_3697)">
<path d="M5.89833 1.02738C4.29968 1.58196 2.92101 2.63458 1.96482 4.03063C1.00863 5.42667 0.525317 7.09256 0.585881 8.78358C0.646445 10.4746 1.24769 12.1016 2.3013 13.4257C3.35491 14.7498 4.80535 15.7011 6.43958 16.1399C7.76448 16.4817 9.15259 16.4968 10.4846 16.1836C11.6912 15.9126 12.8068 15.3328 13.7221 14.5011C14.6747 13.6091 15.3661 12.4742 15.7221 11.2186C16.109 9.85321 16.1778 8.41729 15.9233 7.02113H8.48333V10.1074H12.7921C12.706 10.5996 12.5214 11.0694 12.2495 11.4887C11.9776 11.9079 11.6239 12.268 11.2096 12.5474C10.6834 12.8954 10.0903 13.1296 9.46833 13.2349C8.84451 13.3509 8.20465 13.3509 7.58083 13.2349C6.94856 13.1042 6.35045 12.8432 5.82458 12.4686C4.97976 11.8706 4.34542 11.021 4.01208 10.0411C3.6731 9.04287 3.6731 7.96063 4.01208 6.96238C4.24936 6.26265 4.64162 5.62555 5.15958 5.09863C5.75232 4.48456 6.50274 4.04562 7.32852 3.82997C8.1543 3.61432 9.02353 3.63029 9.84083 3.87613C10.4793 4.07212 11.0631 4.41455 11.5458 4.87613C12.0317 4.39279 12.5167 3.90821 13.0008 3.42238C13.2508 3.16113 13.5233 2.91238 13.7696 2.64488C13.0328 1.95922 12.1679 1.4257 11.2246 1.07488C9.50671 0.451114 7.62705 0.434351 5.89833 1.02738Z" fill="white"/>
<path d="M5.89818 1.02737C7.62676 0.433945 9.50642 0.450267 11.2244 1.07362C12.168 1.42683 13.0324 1.96292 13.7682 2.65112C13.5182 2.91862 13.2544 3.16862 12.9994 3.42862C12.5144 3.91279 12.0299 4.39529 11.5457 4.87612C11.063 4.41455 10.4791 4.07211 9.84068 3.87612C9.02365 3.62943 8.15446 3.61253 7.32846 3.8273C6.50246 4.04207 5.75157 4.4802 5.15818 5.09362C4.64023 5.62054 4.24797 6.25764 4.01068 6.95737L1.41943 4.95112C2.34694 3.11183 3.95287 1.7049 5.89818 1.02737Z" fill="#E33629"/>
<path d="M0.731901 6.93863C0.871177 6.24837 1.10241 5.57991 1.4194 4.95113L4.01065 6.96238C3.67167 7.96063 3.67167 9.04287 4.01065 10.0411C3.14732 10.7078 2.28357 11.3778 1.4194 12.0511C0.625839 10.4715 0.383817 8.67175 0.731901 6.93863Z" fill="#F8BD00"/>
<path d="M8.48322 7.01988H15.9232C16.1777 8.41605 16.1089 9.85197 15.722 11.2174C15.366 12.473 14.6746 13.6078 13.722 14.4999C12.8857 13.8474 12.0457 13.1999 11.2095 12.5474C11.6241 12.2677 11.9779 11.9073 12.2499 11.4875C12.5218 11.0678 12.7062 10.5976 12.792 10.1049H8.48322C8.48197 9.07738 8.48322 8.04863 8.48322 7.01988Z" fill="#587DBD"/>
<path d="M1.41821 12.0511C2.28238 11.3845 3.14613 10.7145 4.00946 10.0411C4.34347 11.0214 4.97872 11.871 5.82446 12.4686C6.35197 12.8415 6.95138 13.1003 7.58446 13.2286C8.20828 13.3446 8.84814 13.3446 9.47196 13.2286C10.094 13.1233 10.6871 12.8892 11.2132 12.5411C12.0495 13.1936 12.8895 13.8411 13.7257 14.4936C12.8106 15.3258 11.695 15.906 10.4882 16.1774C9.15622 16.4905 7.76812 16.4755 6.44321 16.1336C5.39534 15.8538 4.41656 15.3606 3.56821 14.6849C2.67029 13.972 1.93691 13.0736 1.41821 12.0511Z" fill="#319F43"/>
</g>
<defs>
<clipPath id="clip0_143_3697">
<rect width="16" height="16" fill="white" transform="translate(0.324463 0.501129)"/>
</clipPath>
</defs>
</svg>
