<svg id="Layer_1" xmlns="http://www.w3.org/2000/svg" viewBox="0 0 220 90">
  <path d="M33.1,80.97h5.85v1.58h-3.99v2.07h3.75v1.58h-3.75v3.58h-1.86v-8.81h0Z"/>
  <path d="M44.12,80.97h1.86v8.81h-1.86v-8.81Z"/>
  <path d="M52.87,86.9c.04.54.21.94.53,1.19.31.25.77.37,1.38.37.29,0,.54-.04.73-.09.2-.06.37-.14.48-.25s.21-.22.27-.36c.05-.14.08-.29.08-.46,0-.23-.09-.44-.26-.65-.18-.2-.49-.35-.97-.44l-1.16-.21c-.46-.08-.86-.19-1.21-.32-.35-.13-.64-.3-.88-.51-.24-.21-.42-.47-.55-.77-.13-.3-.19-.66-.19-1.09s.08-.79.26-1.11c.17-.32.41-.59.71-.81.29-.21.67-.38,1.09-.49.42-.12.89-.17,1.39-.17.65,0,1.19.07,1.62.22.43.15.78.35,1.05.58.27.24.46.52.59.85.13.32.21.65.26,1l-1.76.22c-.09-.49-.27-.83-.53-1.05-.26-.21-.66-.32-1.19-.32-.31,0-.57.03-.78.08s-.37.12-.49.21c-.13.09-.21.19-.26.3-.05.11-.07.24-.07.35,0,.33.09.58.28.74.19.17.51.29.96.38l1.22.23c.97.19,1.67.5,2.12.92.45.42.67,1.04.67,1.83,0,.39-.07.74-.21,1.07-.14.33-.37.61-.65.85-.29.24-.64.43-1.08.57-.43.13-.94.2-1.52.2-1.22,0-2.15-.26-2.79-.77-.64-.51-.99-1.29-1.05-2.33h1.89l.02.02Z"/>
  <path d="M63.33,80.97h1.86v3.41h3.53v-3.41h1.86v8.81h-1.86v-3.71h-3.53v3.71h-1.86v-8.81Z"/>
  <path d="M76.14,80.97h1.86v8.81h-1.86v-8.81Z"/>
  <path d="M85.23,80.97l3.66,5.78v-5.78h1.81v8.81h-1.66l-3.68-5.73v5.73h-1.81v-8.81h1.68Z"/>
  <path d="M100.37,84.95h3.41v3.73c-.46.42-1,.74-1.64.97-.63.23-1.29.35-1.96.35-.71,0-1.32-.11-1.85-.34-.53-.22-.97-.53-1.31-.94-.35-.41-.61-.89-.79-1.46-.18-.57-.26-1.2-.26-1.89s.1-1.35.29-1.93c.19-.57.46-1.05.81-1.46.35-.41.79-.71,1.29-.93.51-.21,1.07-.32,1.7-.32.57,0,1.06.07,1.47.21.41.14.76.34,1.04.58.29.25.52.54.69.87.17.33.29.68.37,1.06l-1.85.24c-.05-.22-.11-.42-.18-.58-.07-.17-.17-.31-.3-.43-.13-.12-.29-.21-.5-.27-.2-.06-.45-.09-.75-.09-.72,0-1.27.27-1.62.81-.36.54-.54,1.29-.54,2.26s.18,1.73.55,2.27c.36.53.95.8,1.76.8.39,0,.73-.04,1.02-.12.29-.08.56-.2.83-.36v-1.47h-1.7v-1.53h0Z"/>
  <path d="M116.92,86.9c.04.54.21.94.53,1.19.31.25.77.37,1.38.37.29,0,.54-.04.73-.09.2-.06.37-.14.48-.25.12-.11.22-.22.27-.36.05-.14.08-.29.08-.46,0-.23-.09-.44-.26-.65-.18-.2-.49-.35-.97-.44l-1.16-.21c-.46-.08-.86-.19-1.21-.32-.35-.13-.64-.3-.88-.51-.24-.21-.42-.47-.54-.77-.12-.3-.19-.66-.19-1.09s.08-.79.26-1.11c.17-.32.41-.59.71-.81.29-.21.67-.38,1.09-.49.42-.12.89-.17,1.39-.17.65,0,1.19.07,1.62.22.43.15.78.35,1.05.58.27.24.46.52.59.85.13.32.21.65.26,1l-1.76.22c-.09-.49-.27-.83-.53-1.05-.26-.21-.66-.32-1.19-.32-.31,0-.57.03-.78.08-.21.05-.37.12-.49.21s-.22.19-.26.3c-.05.11-.07.24-.07.35,0,.33.09.58.28.74.19.17.51.29.96.38l1.22.23c.96.19,1.67.5,2.12.92.45.42.67,1.04.67,1.83,0,.39-.07.74-.21,1.07s-.37.61-.65.85c-.29.24-.64.43-1.08.57-.43.13-.94.2-1.52.2-1.22,0-2.15-.26-2.79-.77-.64-.51-.99-1.29-1.05-2.33h1.89l.02.02Z"/>
  <path d="M127.2,80.97h1.86v5.25c0,.75.13,1.3.4,1.66.27.36.71.54,1.33.54s1.06-.18,1.33-.54c.26-.36.39-.92.39-1.66v-5.25h1.86v5.25c0,.66-.08,1.24-.25,1.72-.17.48-.4.87-.71,1.18s-.69.54-1.13.68c-.45.14-.95.21-1.5.21s-1.07-.07-1.52-.22-.82-.38-1.13-.68c-.3-.31-.55-.71-.7-1.19-.16-.49-.24-1.06-.24-1.73v-5.21h0Z"/>
  <path d="M139.76,80.97h3.18c.68,0,1.24.08,1.69.23.45.15.8.35,1.06.6.26.25.45.54.54.88.1.34.15.68.15,1.04,0,.39-.05.76-.15,1.11-.11.35-.29.66-.54.93-.26.27-.61.48-1.05.64-.44.16-.99.23-1.65.23h-1.39v3.15h-1.83v-8.81h0ZM142.92,85.1c.32,0,.59-.04.8-.1.21-.06.38-.16.5-.27.12-.12.21-.26.26-.42.04-.17.07-.35.07-.55s-.03-.39-.07-.54c-.04-.15-.13-.29-.26-.4-.12-.11-.29-.19-.51-.25-.21-.06-.48-.09-.8-.09h-1.32v2.62h1.33Z"/>
  <path d="M151.49,80.97h3.18c.68,0,1.24.08,1.69.23.45.15.8.35,1.06.6.26.25.45.54.54.88.1.34.15.68.15,1.04,0,.39-.05.76-.15,1.11-.11.35-.29.66-.54.93-.26.27-.61.48-1.05.64-.44.16-.99.23-1.65.23h-1.39v3.15h-1.83v-8.81h0ZM154.65,85.1c.32,0,.59-.04.8-.1.21-.06.38-.16.5-.27.12-.12.22-.26.26-.42.04-.17.07-.35.07-.55s-.03-.39-.07-.54c-.04-.15-.13-.29-.26-.4-.12-.11-.29-.19-.51-.25-.22-.06-.48-.09-.81-.09h-1.32v2.62h1.33Z"/>
  <path d="M163.21,80.97h1.86v7.24h4.22l-.2,1.58h-5.87v-8.81h0Z"/>
  <path d="M174.85,86.19l-3.08-5.22h2.07l1.92,3.57,1.98-3.57h1.97l-3,5.22v3.59h-1.86v-3.59h0Z"/>
  <path d="M215.66,69.11c-.63,0-1.22-.11-1.76-.31-.54-.2-.99-.5-1.38-.88-.38-.38-.68-.85-.88-1.4-.21-.55-.31-1.17-.31-1.86s.11-1.31.33-1.86c.22-.55.53-1.02.93-1.4.39-.38.86-.68,1.38-.88.52-.2,1.09-.31,1.7-.31.65,0,1.24.11,1.78.31.54.2.99.5,1.37.88.38.39.67.85.88,1.4.21.55.31,1.17.31,1.86s-.11,1.31-.33,1.86c-.22.55-.53,1.02-.93,1.4-.39.39-.86.68-1.39.88-.53.2-1.09.31-1.69.31ZM215.65,68.13c.96,0,1.74-.3,2.34-.91.61-.6.9-1.46.9-2.58s-.3-1.97-.9-2.57c-.61-.6-1.38-.91-2.34-.91s-1.73.3-2.32.91c-.59.6-.89,1.47-.89,2.57s.29,1.97.89,2.58c.59.6,1.37.91,2.32.91ZM214,62.45h1.6c.39,0,.71.04.94.11.23.07.42.17.55.29s.22.26.27.42c.04.16.07.32.07.49,0,.3-.05.55-.15.73-.1.19-.29.34-.55.44l.92,1.77h-1.08l-.79-1.57h-.8v1.57h-.98v-4.25h0ZM215.74,64.3c.36,0,.57-.05.64-.17.07-.11.11-.24.11-.39,0-.12-.05-.24-.14-.34-.1-.11-.34-.15-.73-.15h-.63v1.05h.75Z"/>
  <path d="M52.57,62.36c0,1.05.28,2.07.84,3.06.55.99.84,1.63.84,1.92-.06.29-.19.56-.39.79-.21.23-.46.35-.75.35h-21.47c-.29,0-.52-.1-.66-.31-.15-.2-.19-.48-.13-.83,0-.29.32-.81.97-1.58.59-.76,1.07-1.44,1.46-2.05.38-.61.63-1.35.75-2.23l3.44-24.14c.05-.29.09-.7.09-1.22,0-1.87-.56-3.31-1.68-4.33s-2.5-1.53-4.15-1.53c-2,0-3.91.76-5.74,2.27l-4.15,28.94-.09.88c0,1.05.28,2.07.84,3.06.55.99.84,1.63.84,1.92-.06.29-.19.56-.39.79-.21.23-.46.35-.75.35H.82c-.29,0-.52-.1-.66-.31-.14-.2-.19-.48-.13-.83,0-.29.32-.81.97-1.58.59-.76,1.07-1.44,1.46-2.05.38-.61.63-1.35.75-2.23l4.24-29.82c.05-.23.09-.55.09-.96,0-.76-.12-1.34-.36-1.75-.23-.41-.52-.76-.84-1.05-.32-.29-.55-.5-.66-.61-.23-.18-.36-.43-.36-.79s.09-.64.27-.88c.18-.23.44-.35.8-.35,3.77,0,7.08-.36,9.94-1.1,2.86-.73,5.55-1.58,8.08-2.58,1.12-.41,1.73-.61,1.86-.61.36,0,.64.11.88.31.23.2.32.48.27.83l-.8,5.95c2.06-2.45,4.46-4.35,7.19-5.73,2.73-1.37,5.55-2.05,8.44-2.05,2.59,0,4.98.6,7.16,1.8,2.18,1.19,3.9,2.84,5.17,4.94,1.27,2.1,1.89,4.5,1.89,7.17,0,.47-.06,1.17-.18,2.1l-3.62,25.18-.09.88v.02Z"/>
  <path d="M70.06,67.25c-3-1.4-5.43-3.51-7.28-6.34-1.86-2.83-2.78-6.31-2.78-10.45,0-.81.12-2.21.35-4.19,1.18-8.4,4.34-14.81,9.49-19.24,5.15-4.43,11.65-6.65,19.47-6.65,2.94,0,5.62.63,8.03,1.88,2.41,1.26,4.32,2.93,5.7,5.03,1.39,2.1,2.07,4.34,2.07,6.73,0,.7-.03,1.22-.09,1.58-.53,3.67-2.37,6.53-5.52,8.57-3.15,2.04-6.91,3.06-11.26,3.06-2.12,0-4.14-.19-6.05-.57-1.91-.38-3.37-.74-4.37-1.1-.18,4.78.8,8.41,2.91,10.88,2.12,2.48,4.92,3.72,8.39,3.72,3.12,0,6.39-1.17,9.8-3.5.29-.18.53-.27.71-.27.29,0,.56.12.79.35.23.23.32.56.27.96-.23,1.58-1.28,3.27-3.14,5.07-1.86,1.81-4.34,3.35-7.46,4.64-3.12,1.28-6.6,1.92-10.42,1.92-3.41,0-6.62-.7-9.63-2.1h0ZM85.48,40c2.14-1.54,3.8-3.45,4.94-5.73,1.15-2.27,1.72-4.37,1.72-6.3,0-2.45-1-3.67-3-3.67-1.77,0-3.43.97-4.99,2.93-1.56,1.96-2.87,4.34-3.93,7.17-1.06,2.83-1.77,5.43-2.12,7.83,2.77.06,5.23-.68,7.37-2.23Z"/>
  <path d="M113.26,68.57c-2.36-.7-4.3-1.73-5.83-3.11-1.53-1.37-2.3-3.04-2.3-5.03s.71-3.72,2.12-5.03c1.41-1.31,3.24-1.96,5.48-1.96.88,0,1.77.12,2.65.35-.12.23-.31.7-.57,1.4-.27.7-.43,1.31-.48,1.84-.06.35-.09.88-.09,1.58,0,2.21.62,3.91,1.86,5.07,1.23,1.17,2.74,1.75,4.5,1.75,1.59,0,3.03-.52,4.33-1.58,1.3-1.05,1.94-2.39,1.94-4.03,0-1.35-.48-2.58-1.46-3.72-.97-1.13-2.06-2.11-3.27-2.93-1.21-.81-3.14-1.98-5.78-3.5-2.95-1.69-5.12-3.51-6.53-5.47s-2.12-4.35-2.12-7.21c0-1.22.06-2.16.18-2.8.59-4.37,2.8-7.8,6.62-10.27,3.83-2.48,8.57-3.72,14.22-3.72,4.95,0,8.57.65,10.87,1.92,2.3,1.28,3.44,2.92,3.44,4.89,0,1.69-.78,3.25-2.34,4.68-1.56,1.43-3.32,2.14-5.25,2.14-.47,0-.82-.03-1.06-.09.59-1.34.89-2.62.89-3.85,0-1.87-.64-3.4-1.9-4.59-1.27-1.19-2.66-1.8-4.19-1.8-1.41,0-2.57.51-3.49,1.53-.91,1.02-1.37,2.52-1.37,4.5,0,2.27.77,4.17,2.3,5.68,1.53,1.51,3.85,3.24,6.98,5.16,3.24,1.98,5.69,3.82,7.37,5.51,1.68,1.69,2.52,3.85,2.52,6.47,0,.7-.03,1.22-.09,1.58-.82,5.65-3.43,9.68-7.82,12.07-4.39,2.39-9.46,3.58-15.24,3.58-2.36,0-4.71-.35-7.07-1.05h0Z"/>
  <path d="M153.36,68.57c-2.36-.7-4.3-1.73-5.83-3.11-1.53-1.37-2.3-3.04-2.3-5.03s.71-3.72,2.12-5.03,3.24-1.96,5.48-1.96c.88,0,1.77.12,2.64.35-.12.23-.31.7-.57,1.4-.27.7-.43,1.31-.48,1.84-.06.35-.09.88-.09,1.58,0,2.21.62,3.91,1.86,5.07,1.23,1.17,2.73,1.75,4.5,1.75,1.59,0,3.03-.52,4.33-1.58,1.3-1.05,1.94-2.39,1.94-4.03,0-1.35-.48-2.58-1.46-3.72-.97-1.13-2.06-2.11-3.27-2.93-1.21-.81-3.14-1.98-5.78-3.5-2.94-1.69-5.12-3.51-6.53-5.47-1.41-1.96-2.12-4.35-2.12-7.21,0-1.22.06-2.16.18-2.8.59-4.37,2.8-7.8,6.62-10.27,3.82-2.48,8.57-3.72,14.22-3.72,4.95,0,8.57.65,10.87,1.92,2.3,1.28,3.44,2.92,3.44,4.89,0,1.69-.78,3.25-2.34,4.68-1.56,1.43-3.32,2.14-5.26,2.14-.47,0-.82-.03-1.06-.09.59-1.34.88-2.62.88-3.85,0-1.87-.63-3.4-1.89-4.59-1.27-1.19-2.66-1.8-4.2-1.8-1.41,0-2.57.51-3.49,1.53-.91,1.02-1.37,2.52-1.37,4.5,0,2.27.77,4.17,2.3,5.68,1.53,1.51,3.86,3.24,6.98,5.16,3.24,1.98,5.69,3.82,7.37,5.51,1.68,1.69,2.52,3.85,2.52,6.47,0,.7-.03,1.22-.09,1.58-.82,5.65-3.43,9.68-7.82,12.07-4.39,2.39-9.46,3.58-15.24,3.58-2.36,0-4.71-.35-7.07-1.05h0Z"/>
  <path d="M205.65,62.36c0,1.05.28,2.07.84,3.06.56.99.84,1.63.84,1.92-.06.29-.19.56-.4.79-.21.23-.46.35-.75.35h-21.47c-.29,0-.52-.1-.66-.31-.14-.2-.19-.48-.13-.83,0-.29.32-.81.97-1.58.59-.76,1.07-1.44,1.46-2.05.38-.61.63-1.35.75-2.23l4.24-29.82c.06-.23.09-.55.09-.96,0-.76-.12-1.34-.35-1.75-.23-.41-.52-.76-.84-1.05-.32-.29-.55-.5-.66-.61-.23-.18-.36-.43-.36-.79s.09-.64.27-.88c.18-.23.44-.35.8-.35,3.77,0,7.08-.36,9.94-1.1,2.86-.73,5.55-1.58,8.08-2.58,1.12-.41,1.73-.61,1.86-.61.36,0,.64.11.88.31.23.2.32.48.27.83l-5.57,39.36-.09.88h0ZM196.47,16.1c-1.53-1.51-2.3-3.38-2.3-5.6,0-1.87.5-3.6,1.5-5.2,1-1.6,2.32-2.88,3.98-3.85,1.65-.96,3.39-1.44,5.21-1.44,2.3,0,4.19.74,5.7,2.23,1.5,1.49,2.25,3.37,2.25,5.65,0,1.87-.5,3.6-1.5,5.2-1,1.6-2.32,2.88-3.93,3.85-1.62.96-3.34,1.44-5.17,1.44-2.3,0-4.21-.76-5.74-2.27h0Z"/>
</svg>